<svg xmlns="http://www.w3.org/2000/svg" viewBox="0 0 44 44"><defs><style>.cls-1{fill:#111216;}</style></defs><title>celsius@1x</title><g id="Layer_2" data-name="Layer 2"><g id="Weather"><g id="Celsius_2x.png" data-name="Celsius@2x.png"><path class="cls-1" d="M40,0H4A4,4,0,0,0,0,4V40a4,4,0,0,0,4,4H40a4,4,0,0,0,4-4V4A4,4,0,0,0,40,0Zm2,40a2,2,0,0,1-2,2H4a2,2,0,0,1-2-2V4A2,2,0,0,1,4,2H40a2,2,0,0,1,2,2ZM29.5,28.39a4.34,4.34,0,0,1-2.1.55,5.69,5.69,0,0,1-2.5-.54A5.81,5.81,0,0,1,23,26.92a6.75,6.75,0,0,1-1.24-2.23,8.72,8.72,0,0,1-.44-2.83,7.9,7.9,0,0,1,.44-2.66A6.72,6.72,0,0,1,23,17a5.74,5.74,0,0,1,1.92-1.45,5.81,5.81,0,0,1,2.5-.52,4.82,4.82,0,0,1,1.84.38,5.33,5.33,0,0,1,1.89,1.51L33.6,15a7.89,7.89,0,0,0-2.87-2.33A8.16,8.16,0,0,0,27.38,12a9.76,9.76,0,0,0-3.78.71,8.48,8.48,0,0,0-3,2,9.39,9.39,0,0,0-1.95,3.19,11.73,11.73,0,0,0-.7,4.16,11.24,11.24,0,0,0,.7,4.06,9.31,9.31,0,0,0,1.95,3.13,8.54,8.54,0,0,0,3,2,9.76,9.76,0,0,0,3.78.71,8.63,8.63,0,0,0,3.69-.81A7.24,7.24,0,0,0,34,28.62l-2.61-2A5.85,5.85,0,0,1,29.5,28.39ZM12,8a4,4,0,1,0,4,4A4,4,0,0,0,12,8Zm0,6a2,2,0,1,1,2-2A2,2,0,0,1,12,14Z"/></g></g></g></svg>